# Blender 5.0.0
# www.blender.org
mtllib couch.mtl
o obj_0
v 0.788968 0.462464 -0.785296
v 0.651032 0.462464 -0.785296
v 0.800000 0.439448 -0.749792
v 0.640000 0.439448 -0.749792
v 0.642533 0.384987 -0.777614
v 0.640000 0.280433 -0.749792
v 0.796768 0.032552 -0.785296
v 0.644192 0.029823 -0.785362
v 0.643232 0.009536 -0.749792
v 0.788968 0.000000 -0.749792
v 0.705585 0.444115 -0.122208
v 0.705585 0.411563 -0.072000
v 0.556617 0.411563 -0.122208
v 0.567649 0.411563 -0.072000
v 0.648000 0.003707 -0.152000
v 0.800000 0.032552 -0.122208
v 0.788968 0.009536 -0.086704
v 0.645520 0.009536 -0.097104
v 0.041080 0.144000 -0.152000
v 0.005944 0.184194 -0.158386
v -0.800000 0.439448 -0.749792
v 0.570240 -0.005552 -0.827168
v -0.640000 0.296322 -0.713742
v -0.640000 0.160000 -0.717728
v -0.640000 0.037870 -0.736000
v -0.640000 0.032552 -0.122208
v -0.648000 0.525880 -0.963056
v -0.648000 0.028328 -0.834384
v 0.633152 0.008384 -0.829224
v 0.525254 0.529470 -0.817448
v -0.605544 0.523736 -0.971336
v 0.557979 0.582428 -0.986488
v -0.570240 -0.005600 -0.825608
v 0.509018 0.586648 -0.971720
v -0.647040 0.561504 -0.825288
v -0.788968 0.000000 -0.749792
v -0.651032 0.000000 -0.749792
v 0.590920 0.293600 -0.088000
v -0.615944 0.000880 -0.827288
v 0.593976 0.024400 -0.842800
v 0.570240 0.217656 -0.728000
v -0.651032 0.472000 -0.749792
v -0.651032 0.472000 -0.122208
v -0.647284 0.434882 -0.792934
v -0.788968 0.462464 -0.785296
v -0.601746 0.020789 -0.736000
v 0.594272 0.019350 -0.736000
v 0.041080 0.293600 -0.728000
v 0.590920 0.304000 -0.686400
v 0.041080 0.304000 -0.686400
v 0.590920 0.304000 -0.129600
v 0.078681 0.350148 -0.129600
v 0.611464 0.293600 -0.722424
v 0.632000 0.293600 -0.686400
v 0.599741 0.553144 -0.972688
v 0.605544 0.198138 -0.724030
v -0.582408 0.248126 -0.736000
v -0.037866 0.307534 -0.768219
v -0.037866 0.262525 -0.768219
v -0.037866 0.317934 -0.726619
v -0.018184 0.304000 -0.199676
v -0.606920 0.304000 -0.137600
v -0.002290 0.307534 -0.747419
v -0.036544 0.227030 -0.730424
v 0.625224 0.160000 -0.715991
v -0.016000 0.160000 -0.694400
v 0.058146 0.339748 -0.093576
v -0.018184 0.293600 -0.158076
v -0.627464 0.214511 -0.730424
v 0.000000 0.293600 -0.686400
v 0.037602 0.339748 -0.129600
v 0.017392 0.293600 -0.178876
v 0.020544 0.196095 -0.722424
v -0.035136 0.184194 -0.102386
v 0.590920 0.144000 -0.152000
v -0.035136 0.173794 -0.143986
v -0.606920 0.144000 -0.137600
v 0.000000 0.154400 -0.129600
v 0.626496 0.293600 -0.108800
v -0.641563 0.344971 -0.766962
v 0.553836 0.544440 -0.832899
v 0.594299 0.524550 -0.825013
v -0.582408 0.559384 -0.971720
v -0.796768 0.032552 -0.785296
v -0.643539 0.029466 -0.783902
v 0.626496 0.149200 -0.129600
v -0.643232 0.439448 -0.086704
v -0.796768 0.462464 -0.122208
v -0.796768 0.439448 -0.086704
v -0.640662 0.293600 -0.114942
v -0.640594 0.153844 -0.115687
v -0.648000 0.003707 -0.152000
v -0.651032 0.009536 -0.086704
v -0.794480 0.009536 -0.097104
v -0.570240 0.589992 -0.828376
v 0.590920 0.145392 -0.108800
v 0.041080 0.145392 -0.108800
v -0.607216 0.574800 -0.822256
vn -0.9655 0.0814 -0.2472
vn -0.0000 0.8391 0.5440
vn -0.9959 -0.0000 -0.0907
vn 0.9580 0.0174 -0.2864
vn -0.0567 -0.8666 -0.4958
vn 0.0135 -0.7385 -0.6741
vn 0.9809 -0.0246 0.1929
vn -0.2132 0.9759 0.0469
vn -0.9573 -0.1986 0.2103
vn 0.8896 0.2041 0.4087
vn 0.9721 0.1969 0.1277
vn 0.9054 -0.4245 0.0061
vn 0.9090 0.4168 -0.0032
vn -0.2045 -0.7946 -0.5716
vn -0.9997 -0.0251 0.0049
vn -1.0000 -0.0051 -0.0084
vn -0.0000 -0.0366 0.9993
vn -0.0721 -0.0761 0.9945
vn -0.0000 -0.0000 1.0000
vn -0.0723 -0.0245 0.9971
vn 0.9981 0.0609 -0.0088
vn 0.9998 0.0174 0.0012
vn 0.9607 0.0196 -0.2769
vn -0.0669 0.2500 0.9659
vn -0.1449 -0.9618 0.2323
vn 0.0074 -0.9999 -0.0098
vn -0.0000 -1.0000 -0.0000
vn -0.0653 -0.9978 0.0143
vn -0.0000 -1.0000 0.0062
vn -0.0000 -0.9999 0.0146
vn -0.0010 -0.9999 0.0144
vn -0.0001 -0.2504 -0.9681
vn 0.7751 -0.6310 -0.0320
vn -0.0536 0.0010 -0.9986
vn 0.0087 -0.0222 -0.9997
vn -0.2134 0.9764 -0.0347
vn -0.0653 0.9979 -0.0000
vn 0.1129 0.7580 -0.6424
vn -1.0000 0.0035 0.0061
vn -1.0000 0.0013 0.0049
vn -0.1857 0.8498 0.4932
vn -0.8431 0.3831 -0.3774
vn 0.0004 -0.9647 0.2634
vn -0.3944 -0.8832 0.2539
vn -0.0059 0.8047 -0.5937
vn -0.0011 0.2756 0.9613
vn 0.0007 0.5517 -0.8340
vn 0.0098 0.0680 -0.9976
vn 0.1357 0.3039 -0.9430
vn -0.0080 -0.0554 -0.9984
vn -0.0000 0.9966 -0.0826
vn 0.0897 0.9960 -0.0000
vn -0.9913 -0.0000 -0.1317
vn -0.9858 0.0795 -0.1476
vn -0.9663 -0.2573 -0.0026
vn -0.9895 -0.1417 -0.0297
vn -0.8729 -0.2202 -0.4354
vn 0.9743 0.2235 -0.0287
vn 0.9885 -0.0248 0.1489
vn 0.8669 0.0655 -0.4942
vn 0.9630 -0.0119 -0.2693
vn -0.1861 -0.9818 0.0379
vn -0.2850 -0.2562 -0.9237
vn -0.1354 0.2542 0.9576
vn -0.1975 -0.2567 -0.9461
vn -0.0591 -0.0000 -0.9983
vn -0.0912 0.3256 -0.9411
vn -0.2373 0.1591 -0.9583
vn -0.0353 0.9990 0.0277
vn -0.0014 0.9999 -0.0132
vn 0.1404 0.9605 -0.2401
vn 0.1169 0.0095 -0.9931
vn 0.3824 -0.3438 -0.8577
vn 0.3664 -0.0071 -0.9304
vn 0.4691 -0.3690 -0.8024
vn 0.9994 -0.0000 -0.0350
vn 0.2884 0.9574 0.0145
vn -0.0400 0.9694 -0.2423
vn -0.1569 0.2522 0.9549
vn -0.7516 0.0193 -0.6593
vn 0.9983 0.0017 -0.0589
vn 0.1540 0.5040 0.8499
vn -0.9788 0.1986 0.0496
vn -0.9927 0.1171 0.0293
vn 0.2729 0.9619 0.0141
vn 0.1404 0.9605 0.2401
vn 0.4905 0.2357 0.8390
vn 0.7100 0.2290 0.6660
vn 0.0256 0.9698 0.2425
vn -0.2921 0.9564 0.0040
vn 0.0316 0.8897 0.4554
vn -0.0000 1.0000 -0.0000
vn -0.0000 0.9608 -0.2774
vn 0.0024 0.9701 -0.2425
vn 0.9743 -0.2232 -0.0298
vn 0.2126 0.9543 0.2099
vn -0.2385 0.9421 -0.2355
vn -0.0000 -0.0781 0.9969
vn -0.0224 -0.1389 0.9900
vn 0.0076 0.2635 0.9646
vn 0.3699 -0.1305 -0.9198
vn -0.6783 0.1246 -0.7241
vn 0.0619 0.4451 0.8933
vn -0.0217 -0.0053 0.9998
vn -0.9792 -0.2028 -0.0096
vn -0.2449 0.9675 -0.0636
vn -0.0000 -0.9995 0.0322
vn 0.4366 0.8996 -0.0107
vn 0.5240 0.8324 0.1805
vn 0.2806 0.9598 -0.0000
vn 0.5011 -0.1203 0.8570
vn -0.9997 -0.0231 0.0083
vn 0.5107 -0.1226 0.8510
vn -0.4420 0.2229 0.8689
vn 0.0871 0.9665 0.2416
vn 0.9970 0.0697 0.0344
vn 0.9972 0.0709 0.0257
vn 0.0785 0.9450 0.3176
vn -0.2431 0.9601 0.1386
vn -0.9580 0.0174 -0.2864
vn -0.9809 -0.0246 0.1929
vn -0.9961 -0.0072 0.0882
vn -0.6581 -0.7492 0.0750
vn 0.1294 0.5817 0.8030
vn 0.3926 0.8903 0.2308
vn -0.8555 0.1736 0.4879
vn -0.4567 -0.0295 0.8891
vn 0.9938 -0.1053 -0.0359
vn 0.9931 -0.1109 -0.0371
vn 0.9894 -0.0810 0.1205
vn -0.3653 -0.9299 -0.0430
vn 0.9603 -0.2527 -0.1182
vn -0.0511 0.9027 -0.4273
vn 0.0101 0.3523 0.9358
vn -0.0012 -0.9594 0.2821
vn -0.0234 0.9366 0.3496
vn 0.1461 -0.2436 -0.9588
vn -0.2722 0.6966 0.6638
vn -0.0087 -0.7380 -0.6747
vn -0.0000 -0.7567 -0.6537
vn -0.8830 -0.2414 -0.4025
vn 0.0004 -0.0000 -1.0000
vn -0.0000 0.0002 -1.0000
vn -0.0000 1.0000 -0.0074
vn -0.2135 0.9768 0.0150
vn 0.6736 0.7206 0.1644
vn 0.9714 -0.0153 -0.2370
vn -0.4626 0.1376 0.8758
vn -0.0478 0.7310 0.6807
vn 0.9725 0.2330 -0.0000
vn -1.0000 0.0075 0.0049
vn 0.9569 -0.0109 0.2903
vn 0.9429 -0.0013 0.3330
vn 0.9832 -0.0178 0.1816
vn -0.0000 -0.0471 0.9989
vn -0.8499 -0.5270 0.0076
vn 0.9388 -0.3364 0.0736
vn -0.1884 0.2568 0.9479
vn -0.0848 0.2789 0.9566
vn 0.2342 -0.2282 -0.9450
vn 1.0000 -0.0014 0.0095
vn 0.9987 -0.0500 -0.0031
vn 0.1553 0.9580 0.2411
vn -0.0013 -0.2616 -0.9652
vn 0.0008 -0.2654 -0.9641
vn -0.0022 -0.2656 -0.9641
vn -0.3976 0.9036 -0.1592
vn -0.2913 0.9267 -0.2376
vn -0.0155 0.9459 -0.3242
vn 0.0560 0.9754 -0.2130
vn -0.8242 0.5328 -0.1918
vn 0.0003 -0.0109 -0.9999
vn 0.1248 -0.9917 0.0320
vn -0.5033 -0.5464 -0.6694
vn -0.2292 -0.9729 0.0313
vn 0.0028 0.1755 0.9845
vn 0.0502 0.2585 0.9647
vn -0.5359 -0.8190 0.2048
vn 0.0511 -0.8793 0.4735
vn 0.0433 -0.9692 0.2423
vn 0.2250 0.9736 -0.0393
vn 0.0167 -0.1069 0.9941
vn 0.4833 -0.2283 0.8452
vn -0.5002 -0.2035 0.8417
vn 0.0481 0.2818 0.9583
vn 0.1249 0.2972 0.9466
vn 0.1916 0.2961 0.9358
vn -0.2730 0.8923 0.3595
vt 0.792596 0.004935
vt 0.772091 0.013735
vt 0.764768 -0.000000
vt 0.968527 0.268466
vt 0.918659 0.261836
vt 0.916363 0.248494
vt 0.974209 0.256184
vt 0.829893 0.017714
vt 0.756764 0.013103
vt 0.608051 0.004369
vt 0.764768 0.000000
vt 0.245458 0.953778
vt 0.245550 0.966145
vt 0.192193 0.953567
vt 0.764768 0.420548
vt 0.820351 0.418513
vt 0.818200 0.431399
vt 0.596536 0.017699
vt 0.922765 -0.000000
vt 0.972634 0.006630
vt 0.970239 0.024748
vt 0.916363 0.017622
vt 0.912890 0.261307
vt 0.764768 0.262264
vt 0.765769 0.244307
vt 0.614904 0.246048
vt 0.764768 0.242462
vt 0.606858 0.259302
vt 0.753419 0.261098
vt 0.652276 0.959815
vt 0.652276 0.721825
vt 0.654396 0.741861
vt 0.262409 0.686035
vt 0.265053 0.938812
vt 0.257458 0.699218
vt 0.666708 0.727987
vt 0.666530 0.486827
vt 0.826825 0.486960
vt 0.823386 0.724551
vt 0.362278 0.881326
vt 0.364165 0.733314
vt 0.413529 0.723615
vt 0.413529 0.870783
vt 0.823214 0.417885
vt 0.820351 0.262264
vt 0.876348 0.262264
vt 0.875536 0.417421
vt 0.265053 0.707856
vt 0.276909 0.466113
vt 0.329102 0.694792
vt 0.330096 0.476433
vt 0.425302 0.479097
vt 0.435839 0.489907
vt 0.381067 0.476710
vt 0.576217 0.007751
vt 0.563726 0.024126
vt 0.441672 0.014505
vt 0.994037 0.499909
vt 0.960726 0.487937
vt 0.994486 0.483118
vt 0.217218 0.470784
vt 0.000000 0.473763
vt 0.217485 0.000000
vt 0.245550 0.716425
vt 0.193363 0.712175
vt 0.000000 0.002119
vt 0.487033 0.963218
vt 0.436835 0.963218
vt 0.488062 0.725607
vt 0.435839 0.721825
vt 0.217485 0.458394
vt 0.412633 0.454830
vt 0.401896 0.466076
vt 0.723728 0.436597
vt 0.734412 0.430225
vt 0.734412 0.469211
vt 0.705644 0.261098
vt 0.757344 0.269820
vt 0.705644 0.417454
vt 0.761517 0.417436
vt 0.190929 0.941344
vt 0.136584 0.941080
vt 0.139037 0.712175
vt 0.192193 0.712458
vt 0.192193 0.957127
vt 0.140547 0.954026
vt 0.653935 0.261098
vt 0.705644 0.261098
vt 0.653961 0.308745
vt 0.705231 0.448473
vt 0.236275 0.707730
vt 0.231547 0.679023
vt 0.244165 0.672072
vt 0.994124 0.914952
vt 0.960264 0.923230
vt 0.960264 0.473606
vt 0.999527 0.945650
vt 0.994486 0.491458
vt 0.999527 0.473606
vt 0.573190 0.444566
vt 0.456408 0.427607
vt 0.582160 0.244122
vt 0.987524 -0.000000
vt 0.987524 0.454121
vt 0.980623 0.435845
vt 0.308468 0.739811
vt 0.313670 0.947704
vt 0.285832 0.933236
vt 0.974209 0.449676
vt 0.272675 0.733219
vt 0.016028 0.690076
vt 0.031697 0.487091
vt 0.216554 0.691988
vt 0.218489 0.488923
vt 0.872600 0.033360
vt 0.862559 0.246480
vt 0.916363 0.241463
vt 0.590149 0.943234
vt 0.541452 0.945483
vt 0.541409 0.932487
vt 0.596536 0.466420
vt 0.596536 0.261098
vt 0.653935 0.310224
vt 0.705644 0.435316
vt 0.723728 0.430225
vt 0.709112 0.464273
vt 0.217485 0.018611
vt 0.424926 0.014130
vt 0.435839 0.023136
vt 0.596536 0.003274
vt 0.446416 0.000000
vt 0.218770 0.443080
vt 0.675733 0.926587
vt 0.658315 0.727987
vt 0.674675 0.728456
vt 0.658315 0.946781
vt 0.687689 0.943281
vt 0.643168 0.487070
vt 0.653688 0.706486
vt 0.450963 0.493200
vt 0.443220 0.708974
vt 0.649851 0.473606
vt 0.658315 0.486025
vt 0.278958 0.946317
vt 0.709958 0.783280
vt 0.700928 0.758262
vt 0.711929 0.727988
vt 0.265053 0.953920
vt 0.698666 0.727988
vt 0.734412 0.445086
vt 0.741385 0.430225
vt 0.741385 0.462652
vt 0.429277 0.773302
vt 0.429277 0.723615
vt 0.434789 0.753780
vt 0.232743 0.466076
vt 0.246997 0.569987
vt 0.232743 0.617641
vt 0.596536 0.230868
vt 0.570701 0.223247
vt 0.069676 0.935754
vt 0.088141 0.734388
vt 0.136584 0.937676
vt 0.136584 0.732581
vt 0.442510 0.480784
vt 0.435839 0.494253
vt 0.762348 0.780069
vt 0.749368 0.728720
vt 0.762348 0.727987
vt 0.762348 0.727987
vt 0.774449 0.771178
vt 0.762348 0.779744
vt 0.435839 0.721825
vt 0.231532 0.692142
vt 0.223917 0.705208
vt 0.231532 0.481473
vt 0.015878 0.705259
vt 0.488062 0.742550
vt 0.501679 0.937588
vt 0.491060 0.948386
vt 0.000000 0.712175
vt 0.001041 0.689945
vt 0.069676 0.727166
vt 0.069624 0.927702
vt -0.000000 0.733385
vt 0.016903 0.927701
vt 0.313670 0.723615
vt 0.124150 0.721270
vt 0.644628 0.948847
vt 0.602596 0.728350
vt 0.644628 0.721825
vt 0.594074 0.949256
vt 0.083276 0.712175
vt 0.016710 0.486960
vt 0.413529 0.738819
vt 0.429277 0.738773
vt 0.429277 0.938872
vt 0.894497 0.494250
vt 0.899053 0.509607
vt 0.840634 0.494680
vt 0.218629 0.473763
vt 0.015972 0.940669
vt 0.687689 0.832937
vt 0.687689 0.727987
vt 0.698666 0.809060
vt 0.067315 0.940669
vt 0.245742 0.672072
vt 0.246997 0.719333
vt 0.245742 0.753078
vt 0.311362 0.714186
vt 0.278583 0.723615
vt 0.024328 0.473893
vt 0.658315 0.473606
vt 0.814832 0.474211
vt 0.687477 0.452718
vt 0.666404 0.470666
vt 0.653935 0.470666
vt 0.662061 0.452718
vt 0.457736 0.452792
vt 0.450252 0.437999
vt 0.843058 0.509506
vt 0.069868 0.948338
vt 0.065492 0.712175
vt 0.541409 0.721825
vt 0.541409 0.929074
vt 0.723728 0.468923
vt 0.624600 0.473321
vt 0.613924 0.462871
vt 0.881248 0.933651
vt 0.893145 0.527298
vt 0.435839 0.027962
vt 0.881594 0.925204
vt 0.837139 0.519769
vt 0.229254 0.003783
vt 0.431825 -0.000000
vt 0.556169 0.222687
vt 0.709207 0.430225
vt 0.759468 0.429164
vt 0.244165 0.689658
vt 0.815031 0.262264
vt 0.764768 0.263209
vt 0.826825 0.473606
vt 0.510288 0.470635
vt 0.481886 0.473606
vt 0.737187 0.784867
vt 0.724523 0.779725
vt 0.737187 0.727987
vt 0.265053 0.479005
vt 0.711929 0.782550
vt 0.724523 0.727987
vt 0.724523 0.785447
vt 0.658315 0.715049
vt 0.433719 0.466076
vt 0.899053 0.473606
vt 0.960264 0.722747
vt 0.899053 0.946279
vt 0.656226 0.963083
vt 0.654396 0.745681
vt 0.656226 0.721825
vt 0.549379 0.469895
vt 0.594504 0.464719
vt 0.541409 0.721825
vt 0.594074 0.729413
vt 0.415839 0.438293
vt 0.826825 0.932655
vt 0.829432 0.919233
vt 0.231547 0.668883
vt 0.232456 0.618604
vt 0.246997 0.617641
vt 0.246997 0.672072
vt 0.749368 0.781953
vt 0.737187 0.785322
vt 0.737187 0.727987
vt 0.987524 0.397738
vt 1.000000 0.000000
vt 1.000000 0.406919
vt 0.413529 0.938918
vt 0.420986 0.951736
vt 0.675406 0.472315
vt 0.666404 0.460331
vt 0.675406 0.452718
vt 0.420840 0.723615
vt 0.246997 0.685556
vt 0.265053 0.478688
vt 0.257059 0.466076
vt 0.362278 0.950714
vt 0.317435 0.919072
vt 0.362278 0.723615
vt 0.644628 0.958243
vt 0.644628 0.721825
vt 0.652276 0.942986
vt 0.949195 0.931285
vt 0.951781 0.943559
vt 0.313670 0.931529
vt 0.580373 0.457475
s 0
usemtl color_15277357
f 5/1/1 4/2/1 2/3/1
f 1/4/2 2/5/2 4/6/2
f 1/4/2 4/6/2 3/7/2
f 6/8/3 4/2/3 5/1/3
f 3/9/4 7/10/4 1/11/4
f 9/12/5 8/13/5 10/14/5
f 8/15/6 7/16/6 10/17/6
f 7/10/7 3/9/7 10/18/7
f 14/19/2 12/20/2 11/21/2
f 14/19/8 11/21/8 13/22/8
f 18/23/9 14/24/9 13/25/9
f 16/26/10 11/27/10 17/28/10
f 12/29/11 17/28/11 11/27/11
f 10/18/12 16/26/12 17/28/12
f 9/30/13 18/31/13 15/32/13
f 76/33/14 15/34/14 78/35/14
f 89/36/15 21/37/15 36/38/15
f 89/36/16 36/38/16 94/39/16
f 17/40/17 12/41/17 14/42/17
f 17/40/18 14/42/18 18/43/18
f 93/44/19 87/45/19 89/46/19
f 93/44/20 89/46/20 94/47/20
f 42/48/21 87/49/21 23/50/21
f 90/51/22 23/50/22 87/49/22
f 26/52/23 92/53/23 91/54/23
f 69/55/24 57/56/24 98/57/24
f 33/58/25 46/59/25 39/60/25
f 9/61/26 15/62/26 37/63/26
f 18/64/27 9/12/27 17/65/27
f 10/14/28 17/65/28 9/12/28
f 15/62/29 92/66/29 37/63/29
f 36/67/30 37/68/30 94/69/30
f 93/70/31 94/69/31 37/68/31
f 27/71/32 39/72/32 28/73/32
f 22/74/33 40/75/33 47/76/33
f 45/77/34 44/78/34 84/79/34
f 85/80/35 84/79/35 44/78/35
f 42/81/36 21/82/36 88/83/36
f 42/81/37 88/83/37 43/84/37
f 44/85/38 45/86/38 42/81/38
f 35/87/39 27/88/39 44/89/39
f 27/88/40 28/90/40 44/89/40
f 42/81/41 45/86/41 21/82/41
f 39/91/42 37/92/42 25/93/42
f 22/94/43 47/95/43 33/58/43
f 25/96/44 39/60/44 46/59/44
f 37/97/45 47/98/45 9/99/45
f 41/100/46 30/101/46 73/102/46
f 47/103/47 37/104/47 46/105/47
f 48/106/48 53/107/48 41/108/48
f 25/109/49 46/105/49 37/104/49
f 73/110/50 48/106/50 41/108/50
f 50/111/51 52/112/51 49/113/51
f 51/114/52 49/113/52 52/112/52
f 4/2/53 6/8/53 13/25/53
f 6/8/54 65/115/54 13/25/54
f 86/116/55 13/25/55 65/115/55
f 15/117/56 18/23/56 86/116/56
f 13/25/57 86/116/57 18/23/57
f 10/18/58 11/27/58 16/26/58
f 3/9/59 11/27/59 10/18/59
f 65/118/60 53/119/60 54/120/60
f 29/121/61 55/122/61 2/123/61
f 9/124/62 47/125/62 29/126/62
f 32/127/63 40/128/63 22/129/63
f 24/130/64 69/55/64 35/131/64
f 27/71/65 31/132/65 39/72/65
f 57/133/66 58/134/66 59/135/66
f 23/136/67 58/134/67 57/133/67
f 69/137/68 23/136/68 57/133/68
f 60/138/69 23/139/69 61/140/69
f 61/140/70 23/139/70 62/141/70
f 63/142/71 58/143/71 60/138/71
f 41/108/72 53/107/72 56/144/72
f 66/145/73 64/146/73 63/147/73
f 56/144/74 53/107/74 65/148/74
f 58/149/75 63/147/75 64/146/75
f 59/150/76 58/151/76 64/152/76
f 61/140/77 63/142/77 60/138/77
f 23/139/78 60/138/78 58/143/78
f 98/57/79 35/131/79 69/55/79
f 24/153/80 23/154/80 69/155/80
f 35/156/81 23/157/81 24/158/81
f 66/159/82 73/102/82 64/160/82
f 71/161/83 70/162/83 78/163/83
f 66/164/84 78/163/84 70/162/84
f 72/165/85 63/142/85 61/140/85
f 68/166/86 72/165/86 61/140/86
f 78/167/87 72/168/87 68/169/87
f 68/170/88 74/171/88 78/172/88
f 61/140/89 62/141/89 68/166/89
f 62/141/90 23/139/90 90/173/90
f 90/173/91 68/166/91 62/141/91
f 54/174/92 53/175/92 79/176/92
f 50/111/93 49/113/93 53/175/93
f 53/175/94 48/177/94 50/111/94
f 66/178/95 20/179/95 78/180/95
f 48/177/96 63/181/96 70/182/96
f 48/177/97 70/182/97 50/111/97
f 97/183/98 96/184/98 67/185/98
f 38/186/99 67/185/99 96/184/99
f 30/101/100 64/160/100 73/102/100
f 48/106/101 73/110/101 63/187/101
f 66/164/102 70/162/102 73/188/102
f 90/189/103 74/190/103 68/191/103
f 74/190/104 90/189/104 91/192/104
f 63/193/105 73/188/105 70/162/105
f 70/182/106 71/194/106 50/111/106
f 97/195/107 19/196/107 75/197/107
f 49/113/108 79/176/108 53/175/108
f 55/198/109 32/199/109 82/200/109
f 38/201/86 79/176/86 51/114/86
f 49/113/110 51/114/110 79/176/110
f 96/184/111 79/202/111 38/186/111
f 23/203/112 35/204/112 80/205/112
f 86/206/113 79/202/113 96/184/113
f 35/207/114 44/208/114 80/209/114
f 51/114/115 52/112/115 38/201/115
f 23/50/116 80/210/116 42/48/116
f 44/211/117 42/48/117 80/210/117
f 67/212/118 38/201/118 52/112/118
f 52/112/119 71/194/119 67/212/119
f 52/112/106 50/111/106 71/194/106
f 45/213/120 84/214/120 21/37/120
f 84/214/121 36/38/121 21/37/121
f 85/215/122 44/89/122 28/90/122
f 28/216/123 39/217/123 85/218/123
f 30/101/124 82/219/124 81/220/124
f 82/200/125 32/199/125 81/221/125
f 78/163/126 67/222/126 71/161/126
f 97/183/127 67/185/127 78/223/127
f 66/178/128 63/224/128 20/179/128
f 72/225/129 20/179/129 63/224/129
f 78/180/130 20/179/130 72/225/130
f 40/226/131 29/126/131 47/125/131
f 9/227/132 29/121/132 8/228/132
f 32/199/133 31/229/133 34/230/133
f 30/101/134 95/231/134 98/57/134
f 46/59/135 33/58/135 47/95/135
f 34/230/136 83/232/136 30/233/136
f 55/234/137 29/235/137 32/127/137
f 64/160/138 30/101/138 59/236/138
f 84/79/139 85/80/139 36/237/139
f 37/238/140 36/237/140 85/80/140
f 37/92/141 85/239/141 39/91/141
f 1/240/142 7/16/142 8/15/142
f 1/240/143 8/15/143 2/241/143
f 3/7/144 4/6/144 11/21/144
f 11/21/145 4/6/145 13/22/145
f 82/200/146 2/242/146 55/198/146
f 8/228/147 29/121/147 2/123/147
f 5/243/148 2/244/148 82/219/148
f 87/245/149 43/246/149 88/247/149
f 42/48/150 43/248/150 87/49/150
f 89/249/2 87/250/2 88/251/2
f 88/252/151 21/37/151 89/36/151
f 26/52/152 91/54/152 93/253/152
f 91/54/153 90/51/153 93/253/153
f 87/49/154 93/253/154 90/51/154
f 15/254/155 76/255/155 92/256/155
f 37/257/156 92/258/156 93/259/156
f 93/253/157 92/53/157 26/52/157
f 6/260/158 5/243/158 82/219/158
f 65/261/159 6/260/159 82/219/159
f 29/235/160 40/128/160 32/127/160
f 79/262/161 86/263/161 54/120/161
f 65/118/162 54/120/162 86/263/162
f 34/230/163 81/221/163 32/199/163
f 22/129/164 33/264/164 32/127/164
f 31/132/165 32/127/165 33/264/165
f 33/264/166 39/72/166 31/132/166
f 98/265/167 95/266/167 83/232/167
f 27/267/168 35/268/168 98/269/168
f 31/270/169 27/267/169 98/269/169
f 95/266/170 30/233/170 83/232/170
f 83/271/171 31/272/171 98/273/171
f 83/274/172 34/275/172 31/276/172
f 96/277/173 75/197/173 86/278/173
f 19/279/174 78/280/174 20/281/174
f 96/277/107 97/195/107 75/197/107
f 19/196/175 97/195/175 78/282/175
f 30/101/176 98/57/176 59/236/176
f 57/56/177 59/236/177 98/57/177
f 76/33/178 78/35/178 74/283/178
f 77/284/179 76/33/179 91/285/179
f 76/33/180 74/283/180 91/285/180
f 15/286/19 75/287/19 19/288/19
f 78/289/181 15/290/181 19/291/181
f 77/292/182 92/256/182 76/255/182
f 91/293/183 92/256/183 77/292/183
f 75/287/184 15/286/184 86/294/184
f 56/295/185 30/101/185 41/100/185
f 30/101/186 56/295/186 82/219/186
f 65/261/187 82/219/187 56/295/187
f 30/233/188 81/221/188 34/230/188
