# Blender 5.0.0
# www.blender.org
mtllib TV.mtl
o obj_0
v -0.910000 0.060000 0.740000
v -0.910000 0.000000 0.740000
v 0.900000 0.000000 0.740000
v 0.900000 0.060000 0.740000
v 0.900000 0.060000 0.050000
v 0.900000 0.000000 0.050000
v -0.910000 0.000000 0.050000
v -0.910000 0.060000 0.050000
v 0.089680 0.260000 0.335810
v -0.110320 0.260000 0.335810
v 0.089680 0.260000 0.532440
v 0.089680 0.260000 0.535810
v -0.110320 0.260000 0.535810
v -0.110320 0.260000 0.532440
v 0.089680 0.260000 0.332440
v -0.110320 0.260000 0.332440
v -0.110320 0.060000 0.532440
v 0.089680 0.060000 0.532440
v 0.089680 0.060000 0.332440
v -0.110320 0.060000 0.332440
v -1.930000 2.380000 0.535810
v -1.930000 0.260000 0.535810
v -1.930000 0.260000 0.335810
v -1.930000 2.380000 0.335810
v 1.890000 2.380000 0.535810
v 1.890000 0.260000 0.535810
v 1.890000 0.260000 0.335810
v 1.890000 2.380000 0.335810
vn -0.0000 -0.0000 1.0000
vn -0.0000 -0.0000 -1.0000
vn -0.0000 -1.0000 -0.0000
vn -0.0000 1.0000 -0.0000
vn -1.0000 -0.0000 -0.0000
vn 1.0000 -0.0000 -0.0000
vt 0.875226 0.654611
vt 0.886076 0.654611
vt 0.886076 0.981917
vt 0.875226 0.981917
vt 0.896926 0.654611
vt 0.896926 0.981917
vt 0.000000 0.690778
vt 0.000000 0.000000
vt 0.383363 0.361721
vt 0.767336 0.365222
vt 0.766727 0.365222
vt 0.766727 0.329056
vt 0.767336 0.329056
vt 0.166975 0.690777
vt 0.166975 0.726944
vt 0.166365 0.726944
vt 0.166365 0.690777
vt 0.021700 0.690778
vt 0.057866 0.690778
vt 0.057866 0.726944
vt 0.021700 0.726944
vt 0.057866 0.690777
vt 0.094033 0.690777
vt 0.094033 0.726944
vt 0.057866 0.726944
vt 0.383363 0.690778
vt 0.130199 0.726944
vt 0.094033 0.691387
vt 0.130199 0.690778
vt 0.094033 0.726944
vt 0.094033 0.690778
vt 0.383364 0.690778
vt 0.383363 0.325555
vt 0.383363 0.000000
vt 0.130199 0.726334
vt 0.130199 0.726944
vt 0.130199 0.690777
vt 0.802893 0.329056
vt 0.802893 -0.000000
vt 0.766727 -0.000000
vt 0.383364 0.000000
vt 0.766727 -0.000000
vt 0.000000 0.690777
vt 0.010850 0.690777
vt 0.010850 0.815551
vt 0.000000 0.815551
vt 0.839060 0.690777
vt 0.839060 -0.000000
vt 0.802893 0.365222
vt 0.802893 0.690777
vt 0.766727 0.690777
vt 0.875226 0.000000
vt 0.875226 0.383363
vt 0.839060 0.383363
vt 0.839060 0.000000
vt 0.766727 0.690777
vt 0.010850 0.690777
vt 0.021700 0.690777
vt 0.021700 0.815551
vt 0.010850 0.815551
vt 0.875226 0.383363
vt 0.875226 0.766727
vt 0.839060 0.766727
vt 1.000000 -0.000000
vt 1.000000 0.327306
vt 0.948926 0.146532
vt 0.912760 0.146532
vt 0.875226 0.000000
vt 0.875226 0.327306
vt 0.912760 0.182698
vt 0.948926 0.182698
vt 0.875226 0.654611
vt 1.000000 0.327306
vt 1.000000 0.654611
s 0
usemtl color_15277357
f 1/1/1 2/2/1 3/3/1
f 1/1/1 3/3/1 4/4/1
f 5/2/2 6/5/2 7/6/2
f 5/2/2 7/6/2 8/3/2
f 24/7/2 28/8/2 10/9/2
f 11/10/3 12/11/3 13/12/3
f 11/10/3 13/12/3 14/13/3
f 15/14/4 16/15/4 10/16/4
f 15/14/4 10/16/4 9/17/4
f 14/18/1 17/19/1 18/20/1
f 14/18/1 18/20/1 11/21/1
f 15/22/2 19/23/2 20/24/2
f 15/22/2 20/24/2 16/25/2
f 23/26/2 24/7/2 10/9/2
f 17/27/5 10/28/5 20/29/5
f 14/30/5 10/28/5 17/27/5
f 16/31/5 20/29/5 10/28/5
f 12/11/1 25/32/1 13/12/1
f 9/33/2 10/9/2 28/8/2
f 27/34/2 9/33/2 28/8/2
f 19/16/6 9/35/6 18/17/6
f 15/36/6 9/35/6 19/16/6
f 11/37/6 18/17/6 9/35/6
f 10/38/3 14/13/3 23/39/3
f 13/12/3 22/40/3 14/13/3
f 25/32/1 21/41/1 13/12/1
f 22/42/1 13/12/1 21/41/1
f 8/43/5 7/44/5 2/45/5
f 8/43/5 2/45/5 1/46/5
f 24/47/4 25/39/4 28/48/4
f 9/49/3 27/50/3 11/10/3
f 27/50/3 26/51/3 11/10/3
f 25/52/6 26/53/6 27/54/6
f 25/52/6 27/54/6 28/55/6
f 12/11/3 11/10/3 26/51/3
f 25/32/1 12/11/1 26/56/1
f 4/57/6 3/58/6 6/59/6
f 4/57/6 6/59/6 5/60/6
f 24/61/5 23/62/5 22/63/5
f 24/61/5 22/63/5 21/54/5
f 24/47/4 21/50/4 25/39/4
f 23/39/3 14/13/3 22/40/3
f 5/64/4 8/65/4 19/66/4
f 18/67/4 4/68/4 19/66/4
f 5/64/4 19/66/4 4/68/4
f 4/68/4 18/67/4 1/69/4
f 17/70/4 20/71/4 1/69/4
f 8/65/4 1/69/4 20/71/4
f 17/70/4 1/69/4 18/67/4
f 8/65/4 20/71/4 19/66/4
f 3/72/3 2/69/3 7/73/3
f 3/72/3 7/73/3 6/74/3
