# Blender 5.0.0
# www.blender.org
mtllib tvTable.mtl
o obj_0
v 1.756309 0.000000 0.020000
v -2.319344 0.000000 0.020000
v -2.319344 0.000000 -2.000000
v 1.756309 0.000000 -2.000000
v 1.696309 0.060000 0.020000
v -0.379344 0.060000 0.020000
v -0.439344 0.060000 0.020000
v -2.259344 0.060000 0.020000
v -2.259344 0.060000 -2.000000
v -0.439344 0.060000 -2.000000
v -0.379344 0.060000 -2.000000
v 1.696309 0.060000 -2.000000
v 1.920000 1.000000 -2.000000
v 1.920000 1.000000 0.020000
v -1.960000 1.000000 0.020000
v -1.960000 1.000000 -2.000000
v -0.080000 1.000000 0.020000
v -0.080000 1.000000 -2.000000
v -0.140000 1.000000 0.020000
v -0.140000 1.000000 -2.000000
v -2.020000 1.060000 0.020000
v 1.980000 1.060000 0.020000
v 1.980000 1.060000 -2.000000
v -2.020000 1.060000 -2.000000
vn -0.0000 -1.0000 -0.0000
vn -0.0000 -0.0000 1.0000
vn -0.0000 -0.0000 -1.0000
vn -0.0000 0.0001 -1.0000
vn -0.9728 0.2315 -0.0000
vn 0.9529 -0.3034 -0.0000
vn -0.0000 1.0000 -0.0000
vn -0.9529 0.3034 -0.0000
vn -0.9624 0.2718 -0.0000
vn 0.9785 -0.2065 -0.0000
vt 0.000324 0.000324
vt 0.000324 0.496869
vt 0.251079 0.496869
vt 0.251079 0.000324
vt 0.510579 0.007772
vt 0.510579 0.256045
vt 0.503131 0.000324
vt 0.503131 0.496869
vt 0.510579 0.263493
vt 0.510579 0.489421
vt 0.642811 0.489421
vt 0.642811 0.263493
vt 0.635363 0.496869
vt 0.642811 0.256045
vt 0.635363 0.000324
vt 0.642811 0.007772
vt 0.249245 0.748921
vt 0.132556 0.748921
vt 0.132556 0.999676
vt 0.249245 0.999676
vt 0.627267 0.007772
vt 0.634715 0.000324
vt 0.766948 0.000324
vt 0.759500 0.007772
vt 0.366581 0.999676
vt 0.249893 0.999676
vt 0.249892 0.748921
vt 0.366581 0.748921
vt 0.627267 0.489421
vt 0.634715 0.496869
vt 0.766948 0.496869
vt 0.759500 0.489421
vt 0.248597 0.497517
vt 0.000324 0.497517
vt 0.000324 0.748273
vt 0.248597 0.748273
vt 0.724093 0.497517
vt 0.498165 0.497517
vt 0.498165 0.748273
vt 0.724093 0.748273
vt 0.627267 0.263493
vt 0.627267 0.256045
vt 0.759500 0.256045
vt 0.759500 0.263493
vt 0.497517 0.748273
vt 0.249245 0.748273
vt 0.249245 0.497517
vt 0.497517 0.497517
vt 0.950669 0.748273
vt 0.724741 0.748273
vt 0.724741 0.497517
vt 0.950669 0.497517
vt 0.483917 0.999676
vt 0.367229 0.999676
vt 0.367229 0.748921
vt 0.483917 0.748921
vt 0.601253 0.748921
vt 0.484565 0.748921
vt 0.484565 0.999676
vt 0.601253 0.999676
vt 0.899180 0.000324
vt 0.767596 0.000324
vt 0.767596 0.251079
vt 0.899180 0.251079
vt 0.502483 0.000324
vt 0.502483 0.496869
vt 0.251727 0.496869
vt 0.251727 0.000324
vt 0.000324 0.748921
vt 0.131908 0.748921
vt 0.000324 0.999676
vt 0.131909 0.999676
s 0
usemtl color_15277357
f 1/1/1 2/2/1 3/3/1
f 1/1/1 3/3/1 4/4/1
f 5/5/2 6/6/2 1/7/2
f 2/8/2 1/7/2 6/6/2
f 2/8/2 6/6/2 7/9/2
f 2/8/2 7/9/2 8/10/2
f 9/11/3 10/12/3 3/13/3
f 10/12/4 11/14/4 3/13/4
f 4/15/3 3/13/3 11/14/3
f 4/15/3 11/14/3 12/16/3
f 13/17/5 12/18/5 5/19/5
f 13/17/5 5/19/5 14/20/5
f 5/5/2 1/7/2 14/21/2
f 22/22/2 14/21/2 1/7/2
f 4/15/3 12/16/3 23/23/3
f 13/24/3 23/23/3 12/16/3
f 15/25/6 8/26/6 9/27/6
f 15/25/6 9/27/6 16/28/6
f 15/29/2 21/30/2 2/8/2
f 15/29/2 2/8/2 8/10/2
f 24/31/3 16/32/3 9/11/3
f 24/31/3 9/11/3 3/13/3
f 14/33/1 17/34/1 18/35/1
f 14/33/1 18/35/1 13/36/1
f 19/37/1 15/38/1 16/39/1
f 19/37/1 16/39/1 20/40/1
f 21/30/2 15/29/2 19/41/2
f 21/30/2 19/41/2 17/42/2
f 14/21/2 22/22/2 17/42/2
f 21/30/2 17/42/2 22/22/2
f 23/23/3 13/24/3 18/43/3
f 20/44/4 24/31/4 18/43/4
f 16/32/3 24/31/3 20/44/3
f 23/23/3 18/43/3 24/31/3
f 12/45/7 11/46/7 6/47/7
f 12/45/7 6/47/7 5/48/7
f 10/49/7 9/50/7 8/51/7
f 10/49/7 8/51/7 7/52/7
f 17/53/6 6/54/6 11/55/6
f 17/53/6 11/55/6 18/56/6
f 20/57/8 10/58/8 7/59/8
f 20/57/8 7/59/8 19/60/8
f 17/42/2 19/41/2 7/9/2
f 17/42/2 7/9/2 6/6/2
f 20/44/3 18/43/3 11/14/3
f 20/44/3 11/14/3 10/12/3
f 24/61/9 3/62/9 2/63/9
f 24/61/9 2/63/9 21/64/9
f 23/65/7 24/66/7 21/67/7
f 23/65/7 21/67/7 22/68/7
f 4/69/10 23/70/10 1/71/10
f 22/72/10 1/71/10 23/70/10
